<?xml version="1.0" standalone="no"?>
<!DOCTYPE svg PUBLIC "-//W3C//DTD SVG 20010904//EN"
 "http://www.w3.org/TR/2001/REC-SVG-20010904/DTD/svg10.dtd">
<svg version="1.0" xmlns="http://www.w3.org/2000/svg"
 width="282.000000pt" height="252.000000pt" viewBox="0 0 282.000000 252.000000"
 preserveAspectRatio="xMidYMid meet">

<g transform="translate(0.000000,252.000000) scale(0.100000,-0.100000)"
fill="#000000" stroke="none">
<path d="M1547 2216 c-49 -18 -64 -32 -87 -77 -11 -20 -135 -353 -276 -740
l-256 -704 25 -231 c15 -126 29 -238 33 -247 14 -37 49 -14 217 147 l173 164
254 698 c140 385 259 720 266 746 26 99 -23 171 -151 219 -99 37 -149 43 -198
25z m155 -83 c96 -35 115 -48 128 -89 10 -28 9 -45 -5 -87 -9 -30 -20 -59 -24
-65 -5 -9 -51 4 -162 44 -85 31 -156 58 -158 60 -13 12 33 115 60 138 39 33
70 33 161 -1z m-215 -213 l30 -11 -219 -602 c-121 -331 -223 -606 -227 -610
-12 -12 -61 3 -61 18 0 10 365 1019 429 1188 12 31 9 30 48 17z m131 -46 c12
-4 22 -11 22 -16 0 -15 -431 -1201 -440 -1211 -4 -5 -21 -2 -37 5 l-30 13 221
607 c122 335 226 608 231 608 6 0 20 -3 33 -6z m152 -64 c0 -10 -438 -1211
-444 -1217 -2 -3 -18 2 -34 11 l-30 15 214 588 c118 323 218 598 224 610 8 20
13 21 40 12 16 -6 30 -15 30 -19z m-621 -1227 l134 -48 -118 -113 c-65 -62
-120 -111 -122 -108 -3 3 -11 60 -19 128 -8 68 -16 138 -19 156 -3 17 -2 32 2
32 4 0 68 -21 142 -47z"/>
<path d="M2163 1739 c-24 -9 -43 -38 -43 -66 0 -10 71 -88 157 -175 l157 -158
-151 -152 c-89 -90 -154 -164 -158 -180 -13 -53 41 -101 88 -77 31 16 356 339
373 371 8 15 14 35 14 44 0 22 -355 380 -389 392 -14 5 -36 6 -48 1z"/>
<path d="M329 1563 c-98 -97 -183 -188 -189 -204 -9 -21 -8 -33 3 -55 23 -43
360 -374 383 -375 36 -2 49 2 67 23 34 40 23 57 -140 220 l-157 157 157 159
c164 167 174 183 141 230 -11 16 -25 22 -51 22 -34 0 -50 -13 -214 -177z"/>
</g>
</svg>
